<svg width="1283" height="721" viewBox="0 0 1283 721" fill="none" xmlns="http://www.w3.org/2000/svg">
<rect width="1280" height="645" fill="#279EF9"/>
<path d="M174.736 113.776H181.168V146.272H174.736V113.776ZM167.104 126.736H175.648V131.92H167.104V126.736ZM160.768 117.136H167.44C167.44 121.136 166.64 124.752 165.04 127.984C163.44 131.216 161.12 134.016 158.08 136.384C155.072 138.752 151.408 140.624 147.088 142L144.448 136.912C147.872 135.824 150.8 134.448 153.232 132.784C155.664 131.088 157.52 129.168 158.8 127.024C160.112 124.848 160.768 122.512 160.768 120.016V117.136ZM146.752 117.136H164.8V122.224H146.752V117.136ZM152.032 152.368H182.272V157.504H152.032V152.368ZM152.032 143.056H158.416V155.344H152.032V143.056ZM216.684 113.776H223.068V139.504H216.684V113.776ZM221.34 124.144H228.972V129.424H221.34V124.144ZM204.012 116.704H210.876C210.876 120.672 210.076 124.24 208.476 127.408C206.876 130.544 204.54 133.216 201.468 135.424C198.428 137.632 194.732 139.344 190.38 140.56L187.788 135.472C191.34 134.48 194.316 133.216 196.716 131.68C199.148 130.112 200.972 128.336 202.188 126.352C203.404 124.336 204.012 122.176 204.012 119.872V116.704ZM189.852 116.704H207.852V121.792H189.852V116.704ZM208.668 140.08C211.676 140.08 214.3 140.464 216.54 141.232C218.78 141.968 220.508 143.024 221.724 144.4C222.972 145.744 223.596 147.344 223.596 149.2C223.596 151.056 222.972 152.656 221.724 154C220.508 155.376 218.78 156.432 216.54 157.168C214.3 157.904 211.676 158.272 208.668 158.272C205.692 158.272 203.084 157.904 200.844 157.168C198.604 156.432 196.86 155.376 195.612 154C194.364 152.656 193.74 151.056 193.74 149.2C193.74 147.344 194.364 145.744 195.612 144.4C196.86 143.024 198.604 141.968 200.844 141.232C203.084 140.464 205.692 140.08 208.668 140.08ZM208.668 145.024C206.908 145.024 205.372 145.184 204.06 145.504C202.78 145.824 201.788 146.288 201.084 146.896C200.412 147.504 200.076 148.272 200.076 149.2C200.076 150.096 200.412 150.848 201.084 151.456C201.788 152.064 202.78 152.528 204.06 152.848C205.372 153.168 206.908 153.328 208.668 153.328C210.492 153.328 212.044 153.168 213.324 152.848C214.604 152.528 215.58 152.064 216.252 151.456C216.956 150.848 217.308 150.096 217.308 149.2C217.308 148.272 216.956 147.504 216.252 146.896C215.58 146.288 214.604 145.824 213.324 145.504C212.044 145.184 210.492 145.024 208.668 145.024ZM260.841 113.824H267.225V147.04H260.841V113.824ZM265.449 127.36H273.129V132.64H265.449V127.36ZM232.281 118.48H258.393V123.472H232.281V118.48ZM245.337 125.056C247.481 125.056 249.369 125.424 251.001 126.16C252.665 126.864 253.961 127.872 254.889 129.184C255.817 130.464 256.281 131.936 256.281 133.6C256.281 135.296 255.817 136.8 254.889 138.112C253.961 139.392 252.665 140.4 251.001 141.136C249.369 141.84 247.481 142.192 245.337 142.192C243.225 142.192 241.337 141.84 239.673 141.136C238.009 140.4 236.713 139.392 235.785 138.112C234.857 136.8 234.393 135.296 234.393 133.6C234.393 131.936 234.857 130.464 235.785 129.184C236.713 127.872 238.009 126.864 239.673 126.16C241.337 125.424 243.225 125.056 245.337 125.056ZM245.337 129.904C243.929 129.904 242.777 130.224 241.881 130.864C240.985 131.504 240.537 132.432 240.537 133.648C240.537 134.832 240.985 135.744 241.881 136.384C242.777 137.024 243.929 137.344 245.337 137.344C246.777 137.344 247.929 137.024 248.793 136.384C249.689 135.744 250.137 134.832 250.137 133.648C250.137 132.432 249.689 131.504 248.793 130.864C247.929 130.224 246.777 129.904 245.337 129.904ZM242.169 113.776H248.505V120.88H242.169V113.776ZM238.569 152.368H268.809V157.504H238.569V152.368ZM238.569 144.544H245.001V154.576H238.569V144.544ZM288.858 135.76H329.082V140.848H288.858V135.76ZM305.754 130.096H312.09V136.816H305.754V130.096ZM293.322 143.92H324.234V158.272H317.85V148.912H293.322V143.92ZM293.993 114.928H300.282V118.816H317.658V114.928H323.994V132.064H293.993V114.928ZM300.282 123.616V127.072H317.658V123.616H300.282ZM366.086 119.584H373.718V124.816H366.086V119.584ZM366.086 129.232H373.718V134.416H366.086V129.232ZM361.622 113.824H368.006V140.032H361.622V113.824ZM338.342 141.856H368.006V158.272H361.622V146.896H338.342V141.856ZM345.398 116.224C347.702 116.224 349.766 116.704 351.59 117.664C353.414 118.592 354.854 119.872 355.91 121.504C356.966 123.104 357.494 124.96 357.494 127.072C357.494 129.216 356.966 131.104 355.91 132.736C354.854 134.368 353.414 135.648 351.59 136.576C349.766 137.504 347.702 137.968 345.398 137.968C343.126 137.968 341.078 137.504 339.254 136.576C337.43 135.648 335.99 134.368 334.934 132.736C333.878 131.104 333.35 129.216 333.35 127.072C333.35 124.96 333.878 123.104 334.934 121.504C335.99 119.872 337.43 118.592 339.254 117.664C341.078 116.704 343.126 116.224 345.398 116.224ZM345.398 121.6C344.31 121.6 343.318 121.824 342.422 122.272C341.526 122.688 340.822 123.312 340.31 124.144C339.83 124.944 339.59 125.92 339.59 127.072C339.59 128.256 339.83 129.264 340.31 130.096C340.822 130.896 341.526 131.52 342.422 131.968C343.318 132.384 344.31 132.592 345.398 132.592C346.55 132.592 347.558 132.384 348.422 131.968C349.286 131.52 349.974 130.896 350.486 130.096C350.998 129.264 351.254 128.256 351.254 127.072C351.254 125.92 350.998 124.944 350.486 124.144C349.974 123.312 349.286 122.688 348.422 122.272C347.558 121.824 346.55 121.6 345.398 121.6ZM143.968 200.64H184.192V205.776H143.968V200.64ZM160.72 204H167.104V220.272H160.72V204ZM163.984 177.312C167.152 177.312 169.936 177.728 172.336 178.56C174.768 179.36 176.656 180.512 178 182.016C179.344 183.52 180.016 185.28 180.016 187.296C180.016 189.344 179.344 191.12 178 192.624C176.656 194.096 174.768 195.248 172.336 196.08C169.936 196.88 167.152 197.28 163.984 197.28C160.816 197.28 158.016 196.88 155.584 196.08C153.184 195.248 151.296 194.096 149.92 192.624C148.576 191.12 147.904 189.344 147.904 187.296C147.904 185.28 148.576 183.52 149.92 182.016C151.296 180.512 153.184 179.36 155.584 178.56C158.016 177.728 160.816 177.312 163.984 177.312ZM163.936 182.352C162.016 182.352 160.336 182.544 158.896 182.928C157.488 183.312 156.4 183.872 155.632 184.608C154.864 185.312 154.48 186.208 154.48 187.296C154.48 188.352 154.864 189.248 155.632 189.984C156.4 190.72 157.488 191.28 158.896 191.664C160.336 192.016 162.016 192.192 163.936 192.192C165.92 192.192 167.616 192.016 169.024 191.664C170.432 191.28 171.52 190.72 172.288 189.984C173.088 189.248 173.488 188.352 173.488 187.296C173.488 186.208 173.088 185.312 172.288 184.608C171.52 183.872 170.432 183.312 169.024 182.928C167.616 182.544 165.92 182.352 163.936 182.352ZM218.7 175.728H225.132V220.32H218.7V175.728ZM190.524 204.768H194.46C197.084 204.768 199.564 204.736 201.9 204.672C204.236 204.576 206.524 204.432 208.764 204.24C211.004 204.016 213.292 203.696 215.628 203.28L216.3 208.416C212.716 209.056 209.18 209.488 205.692 209.712C202.236 209.904 198.492 210 194.46 210H190.524V204.768ZM190.428 179.52H211.404V196.752H197.004V206.736H190.524V191.712H204.924V184.656H190.428V179.52ZM242.265 198.336H248.601V208.848H242.265V198.336ZM245.385 178.416C247.657 178.416 249.705 178.88 251.529 179.808C253.353 180.736 254.793 182.032 255.849 183.696C256.905 185.328 257.432 187.2 257.432 189.312C257.432 191.424 256.905 193.312 255.849 194.976C254.793 196.64 253.353 197.936 251.529 198.864C249.705 199.792 247.657 200.256 245.385 200.256C243.081 200.256 241.017 199.792 239.193 198.864C237.369 197.936 235.929 196.64 234.873 194.976C233.817 193.312 233.289 191.424 233.289 189.312C233.289 187.2 233.817 185.328 234.873 183.696C235.929 182.032 237.369 180.736 239.193 179.808C241.017 178.88 243.081 178.416 245.385 178.416ZM245.385 183.84C244.233 183.84 243.209 184.064 242.312 184.512C241.449 184.928 240.761 185.552 240.249 186.384C239.737 187.184 239.481 188.16 239.481 189.312C239.481 190.496 239.737 191.504 240.249 192.336C240.761 193.136 241.449 193.76 242.312 194.208C243.209 194.624 244.233 194.832 245.385 194.832C246.505 194.832 247.497 194.624 248.361 194.208C249.257 193.76 249.961 193.136 250.473 192.336C250.985 191.504 251.241 190.496 251.241 189.312C251.241 188.16 250.985 187.184 250.473 186.384C249.961 185.552 249.257 184.928 248.361 184.512C247.497 184.064 246.505 183.84 245.385 183.84ZM260.985 175.776H267.369V220.224H260.985V175.776ZM265.401 193.2H273.225V198.48H265.401V193.2ZM232.569 211.392L231.801 206.256C234.361 206.256 237.161 206.24 240.201 206.208C243.241 206.176 246.345 206.08 249.513 205.92C252.681 205.76 255.737 205.488 258.681 205.104L259.161 209.712C256.089 210.288 252.969 210.704 249.801 210.96C246.665 211.184 243.625 211.312 240.681 211.344C237.769 211.376 235.065 211.392 232.569 211.392ZM317.466 175.824H323.85V202.56H317.466V175.824ZM322.122 186.768H329.754V192H322.122V186.768ZM294.954 204.528H323.85V219.792H294.954V204.528ZM317.61 209.52H301.242V214.752H317.61V209.52ZM288.906 179.76H315.018V184.8H288.906V179.76ZM301.962 186.144C304.138 186.144 306.042 186.48 307.674 187.152C309.306 187.824 310.586 188.768 311.514 189.984C312.442 191.168 312.906 192.56 312.906 194.16C312.906 195.728 312.442 197.12 311.514 198.336C310.586 199.52 309.306 200.448 307.674 201.12C306.042 201.792 304.138 202.128 301.962 202.128C299.818 202.128 297.914 201.792 296.25 201.12C294.618 200.448 293.338 199.52 292.41 198.336C291.482 197.12 291.018 195.728 291.018 194.16C291.018 192.56 291.482 191.168 292.41 189.984C293.338 188.768 294.618 187.824 296.25 187.152C297.914 186.48 299.818 186.144 301.962 186.144ZM301.962 190.848C300.554 190.848 299.402 191.136 298.506 191.712C297.61 192.256 297.162 193.072 297.162 194.16C297.162 195.248 297.61 196.08 298.506 196.656C299.402 197.2 300.554 197.472 301.962 197.472C303.402 197.472 304.554 197.2 305.418 196.656C306.314 196.08 306.762 195.248 306.762 194.16C306.762 193.072 306.314 192.256 305.418 191.712C304.554 191.136 303.402 190.848 301.962 190.848ZM298.794 175.488H305.13V182.496H298.794V175.488ZM338.486 180.816H343.862C343.862 183.632 343.766 186.384 343.574 189.072C343.414 191.728 343.094 194.304 342.614 196.8C342.134 199.296 341.462 201.712 340.598 204.048C339.766 206.384 338.662 208.672 337.286 210.912L332.342 208.224C333.654 206.176 334.71 204.144 335.51 202.128C336.31 200.08 336.918 197.984 337.334 195.84C337.782 193.696 338.086 191.44 338.246 189.072C338.406 186.672 338.486 184.096 338.486 181.344V180.816ZM333.83 180.816H341.894V185.952H333.83V180.816ZM348.374 180.816H353.75C353.75 183.728 353.67 186.592 353.51 189.408C353.382 192.224 353.094 194.992 352.646 197.712C352.23 200.432 351.574 203.072 350.678 205.632C349.814 208.192 348.63 210.672 347.126 213.072L342.278 210.336C343.398 208.576 344.326 206.8 345.062 205.008C345.83 203.216 346.438 201.392 346.886 199.536C347.334 197.68 347.654 195.792 347.846 193.872C348.07 191.92 348.214 189.92 348.278 187.872C348.342 185.792 348.374 183.648 348.374 181.44V180.816ZM345.158 180.816H352.022V185.952H345.158V180.816ZM365.558 175.824H371.606V220.272H365.558V175.824ZM351.59 192.48H357.926V197.568H351.59V192.48ZM356.918 176.736H362.918V218.256H356.918V176.736ZM377.17 182.496H398.434V187.536H377.17V182.496ZM387.874 189.552C389.762 189.552 391.426 190 392.866 190.896C394.338 191.792 395.49 193.04 396.322 194.64C397.186 196.208 397.618 198.032 397.618 200.112C397.618 202.192 397.186 204.032 396.322 205.632C395.49 207.2 394.338 208.432 392.866 209.328C391.426 210.224 389.762 210.672 387.874 210.672C385.986 210.672 384.306 210.224 382.834 209.328C381.362 208.432 380.21 207.2 379.378 205.632C378.546 204.032 378.13 202.192 378.13 200.112C378.13 198.032 378.546 196.208 379.378 194.64C380.21 193.04 381.362 191.792 382.834 190.896C384.338 190 386.018 189.552 387.874 189.552ZM387.874 194.832C387.106 194.832 386.402 195.04 385.762 195.456C385.122 195.872 384.626 196.48 384.274 197.28C383.922 198.048 383.746 198.992 383.746 200.112C383.746 201.232 383.922 202.192 384.274 202.992C384.626 203.792 385.122 204.4 385.762 204.816C386.402 205.2 387.106 205.392 387.874 205.392C388.674 205.392 389.378 205.2 389.986 204.816C390.594 204.4 391.074 203.792 391.426 202.992C391.778 202.192 391.954 201.232 391.954 200.112C391.954 198.992 391.778 198.048 391.426 197.28C391.074 196.48 390.594 195.872 389.986 195.456C389.378 195.04 388.674 194.832 387.874 194.832ZM409.33 175.776H415.378V220.224H409.33V175.776ZM404.002 193.872H411.298V199.008H404.002V193.872ZM399.97 176.592H405.922V218.352H399.97V176.592ZM384.754 176.976H391.042V185.664H384.754V176.976ZM430.206 198.384H436.59V210.816H430.206V198.384ZM446.334 198.384H452.718V210.816H446.334V198.384ZM421.374 209.904H461.646V215.088H421.374V209.904ZM441.438 177.984C444.638 177.984 447.486 178.48 449.982 179.472C452.51 180.464 454.478 181.856 455.886 183.648C457.326 185.408 458.046 187.504 458.046 189.936C458.046 192.336 457.326 194.432 455.886 196.224C454.478 197.984 452.51 199.36 449.982 200.352C447.486 201.344 444.638 201.84 441.438 201.84C438.27 201.84 435.422 201.344 432.894 200.352C430.398 199.36 428.43 197.984 426.99 196.224C425.55 194.432 424.83 192.336 424.83 189.936C424.83 187.504 425.55 185.408 426.99 183.648C428.43 181.856 430.398 180.464 432.894 179.472C435.422 178.48 438.27 177.984 441.438 177.984ZM441.438 182.928C439.39 182.928 437.582 183.216 436.014 183.792C434.478 184.336 433.278 185.12 432.414 186.144C431.55 187.168 431.118 188.432 431.118 189.936C431.118 191.376 431.55 192.624 432.414 193.68C433.278 194.704 434.478 195.504 436.014 196.08C437.582 196.624 439.39 196.896 441.438 196.896C443.518 196.896 445.326 196.624 446.862 196.08C448.43 195.504 449.63 194.704 450.462 193.68C451.326 192.624 451.758 191.376 451.758 189.936C451.758 188.432 451.326 187.168 450.462 186.144C449.63 185.12 448.43 184.336 446.862 183.792C445.326 183.216 443.518 182.928 441.438 182.928Z" fill="#F5F6F7"/>
<path d="M1206.68 161.866C1206.68 161.867 1206.67 161.872 1206.65 161.882C1206.67 161.871 1206.67 161.866 1206.68 161.866ZM1205.58 160.426C1205.94 161.195 1206.1 161.732 1206.18 162.082C1205.84 162.19 1205.29 162.315 1204.45 162.393C1202.02 162.617 1198.39 162.295 1193.66 161.172C1184.26 158.945 1171.96 153.927 1159.13 146.518C1146.3 139.109 1135.8 130.963 1129.17 123.943C1125.83 120.401 1123.74 117.421 1122.72 115.206C1122.37 114.437 1122.2 113.9 1122.12 113.55C1122.46 113.442 1123.01 113.318 1123.85 113.24C1126.28 113.015 1129.91 113.338 1134.65 114.461C1144.04 116.687 1156.34 121.706 1169.18 129.114C1182.01 136.523 1192.51 144.669 1199.13 151.69C1202.47 155.232 1204.56 158.211 1205.58 160.426ZM1122.06 113.015C1122.06 113.015 1122.06 113.024 1122.06 113.041C1122.06 113.023 1122.06 113.015 1122.06 113.015ZM1121.63 113.766C1121.63 113.766 1121.63 113.76 1121.65 113.75C1121.64 113.761 1121.63 113.766 1121.63 113.766ZM1206.24 162.591C1206.24 162.609 1206.24 162.618 1206.24 162.618C1206.24 162.617 1206.24 162.608 1206.24 162.591Z" stroke="#2390E3" stroke-width="13"/>
<rect x="1165.33" y="73.3525" width="61.6793" height="112.828" rx="30.8396" transform="rotate(30 1165.33 73.3525)" fill="#52B1FA"/>
<rect x="761.363" y="44.6509" width="31.2567" height="29.5014" rx="14.7507" transform="rotate(-16.0679 761.363 44.6509)" fill="#52B1FA"/>
<path d="M1208.42 162.11C1201.65 167.752 1183.57 161.383 1158.77 147.067C1133.98 132.751 1120.79 123.373 1120.79 112.466" stroke="#2390E3" stroke-width="13" stroke-linecap="round"/>
<path d="M795.993 47.2681C796.158 51.5821 790.49 55.0729 781.124 57.7704C771.759 60.4679 766.275 61.2424 763.166 57.1565" stroke="#2390E3" stroke-width="5" stroke-linecap="round"/>
<circle cx="1177" cy="269.002" r="6.40163" transform="rotate(-173.897 1177 269.002)" fill="url(#paint0_radial_4220_36692)"/>
<rect x="1176.97" y="275.437" width="1.30645" height="12.8033" transform="rotate(-173.897 1176.97 275.437)" fill="#EC8D64"/>
<path d="M794.1 221.671C795.173 221.724 796.246 221.565 797.257 221.203C798.269 220.841 799.199 220.284 799.995 219.562C800.79 218.841 801.436 217.97 801.896 216.999C802.355 216.028 802.618 214.976 802.671 213.903C802.724 212.83 802.565 211.757 802.203 210.746C801.841 209.735 801.283 208.805 800.562 208.009C799.841 207.213 798.97 206.567 797.998 206.108C797.027 205.648 795.975 205.385 794.903 205.332L794.501 213.502L794.1 221.671Z" fill="url(#paint1_radial_4220_36692)"/>
<path d="M421.355 424.787C420.596 424.028 419.694 423.425 418.702 423.014C417.709 422.603 416.646 422.391 415.571 422.391C414.497 422.391 413.434 422.603 412.441 423.014C411.449 423.425 410.547 424.028 409.788 424.787C409.028 425.547 408.426 426.448 408.015 427.441C407.604 428.433 407.392 429.497 407.392 430.571C407.392 431.645 407.604 432.709 408.015 433.701C408.426 434.693 409.028 435.595 409.788 436.355L415.571 430.571L421.355 424.787Z" fill="url(#paint2_radial_4220_36692)"/>
<rect x="940.531" y="111.374" width="6.28571" height="11" rx="3.14286" transform="rotate(15 940.531 111.374)" fill="#FFE03D"/>
<rect x="939.311" y="115.928" width="6.28571" height="1.04762" transform="rotate(15 939.311 115.928)" fill="#FF9F5A"/>
<rect x="273" y="369.143" width="6.28571" height="11" rx="3.14286" transform="rotate(-30 273 369.143)" fill="#FFE03D"/>
<rect x="275.357" y="373.226" width="6.28571" height="1.04762" transform="rotate(-30 275.357 373.226)" fill="#FF9F5A"/>
<path d="M0 500.919L314.5 485.262L639.5 479L969 485.262L1283 500.919V721H0V500.919Z" fill="url(#paint3_linear_4220_36692)"/>
<circle cx="570.002" cy="81.002" r="6.40163" transform="rotate(51.1034 570.002 81.002)" fill="url(#paint4_radial_4220_36692)"/>
<rect x="574.574" y="76.4742" width="1.30645" height="12.8033" transform="rotate(51.1034 574.574 76.4742)" fill="#EC8D64"/>
<rect x="612" y="195.143" width="6.28571" height="11" rx="3.14286" transform="rotate(-30 612 195.143)" fill="#FFE03D"/>
<rect x="614.357" y="199.226" width="6.28571" height="1.04762" transform="rotate(-30 614.357 199.226)" fill="#FF9F5A"/>
<ellipse cx="793" cy="501.5" rx="77" ry="16.5" fill="#EAEAEA"/>
<ellipse cx="63.7527" cy="11.7097" rx="63.7527" ry="11.7097" transform="matrix(-1 0 0 1 668.551 487.713)" fill="#EAEAEA"/>
<ellipse cx="955.823" cy="499.29" rx="48.1398" ry="11.7097" fill="#EAEAEA"/>
<ellipse cx="1122.95" cy="510.789" rx="71.9928" ry="11.7097" fill="#EAEAEA"/>
<rect x="-0.612372" y="0.353553" width="85.7383" height="163.803" rx="42.8692" transform="matrix(-0.965926 -0.258819 -0.258819 0.965926 676.011 293.171)" fill="url(#paint5_linear_4220_36692)" fill-opacity="0.6" stroke="#FFF284"/>
<path d="M629.295 317.192C634.57 323.923 650.81 325.171 658.477 326.037L653.821 328.867C646.966 333.035 638.814 334.529 630.926 333.063C624.139 331.802 618.02 328.322 612.997 323.587C607.021 317.952 600.952 313.342 596.824 313.393C592.758 313.442 616.862 301.328 629.295 317.192Z" fill="url(#paint6_linear_4220_36692)"/>
<path d="M601.921 312.568C609.042 314.477 610.811 325.694 629.291 330.646C642.255 334.119 655.437 327.326 658.477 326.036L636.554 407.379C631.831 424.905 613.806 435.294 596.273 430.596C578.722 425.894 568.307 407.854 573.01 390.303L592.247 318.51C592.385 317.992 592.58 317.491 592.836 317.02C594.55 313.871 596.545 311.128 601.921 312.568Z" fill="#FFFAEE"/>
<path d="M628.561 343.848C628.993 342.235 630.637 336.537 627.35 335.656C624.062 334.775 622.303 340.657 621.805 342.252" stroke="#40444C" stroke-width="2" stroke-linecap="round"/>
<path d="M617.668 340.929C618.101 339.316 619.745 333.618 616.457 332.737C613.17 331.856 611.41 337.738 610.913 339.333" stroke="#40444C" stroke-width="2" stroke-linecap="round"/>
<path d="M632.637 348.746C629.893 350.983 622.038 355.602 613.601 352.563C606.169 349.886 605.769 344.977 605.483 342.842" stroke="#18181B" stroke-width="2" stroke-linecap="round"/>
<path d="M645.269 298.252C650.341 301.47 657.7 311.646 657.311 320.336" stroke="white" stroke-width="5.69806" stroke-linecap="round"/>
<circle cx="3.089" cy="3.089" r="3.089" transform="matrix(-0.965926 -0.258819 -0.258819 0.965926 641.812 291.04)" fill="white"/>
<path d="M618.24 440.708L652.787 496.845L666.755 485.259" stroke="#FFE24B" stroke-width="8" stroke-linecap="round" stroke-linejoin="round"/>
<path d="M583.979 435.414L573.57 498.299H556.223" stroke="#FFE24B" stroke-width="8" stroke-linecap="round" stroke-linejoin="round"/>
<path d="M654.67 381.636C663.834 391.301 687.766 411.598 710.182 415.464" stroke="#FFE24B" stroke-width="8" stroke-linecap="round" stroke-linejoin="round"/>
<path d="M570.534 363.3C556.051 365.385 522.937 365.551 506.348 349.543" stroke="#FFE24B" stroke-width="8" stroke-linecap="round" stroke-linejoin="round"/>
<rect width="32.0932" height="28.6237" rx="1" transform="matrix(-1 0 0 1 523.695 321.787)" fill="#00D37B"/>
<rect width="37.2975" height="8.67383" rx="1" transform="matrix(-1 0 0 1 526.297 318.317)" fill="#2AE799"/>
<path d="M513.286 313.296C511.551 312.255 508.949 315.899 508.082 318.067C509.094 318.067 511.465 317.894 512.852 317.2C514.587 316.332 515.454 314.597 513.286 313.296Z" stroke="#F66555" stroke-width="2" stroke-linecap="round" stroke-linejoin="round"/>
<path d="M502.445 313.296C504.179 312.255 506.781 315.899 507.649 318.067C506.637 318.067 504.266 317.894 502.878 317.2C501.143 316.332 500.276 314.597 502.445 313.296Z" stroke="#F66555" stroke-width="2" stroke-linecap="round" stroke-linejoin="round"/>
<path d="M508.082 318.067C509.383 319.657 512.766 322.577 515.889 321.536" stroke="#F66555" stroke-width="2" stroke-linecap="round"/>
<path d="M507.648 318.067C506.347 319.657 502.964 322.577 499.842 321.536" stroke="#F66555" stroke-width="2" stroke-linecap="round"/>
<path d="M507.648 318.317V349.543" stroke="#F66555" stroke-width="2" stroke-linecap="round"/>
<path d="M571.829 353.061C571.898 352.8 572.15 352.503 572.77 352.231C573.381 351.962 574.263 351.758 575.411 351.633C577.701 351.384 580.929 351.462 584.875 351.854C592.759 352.638 603.415 354.669 614.971 357.765C626.526 360.861 636.77 364.431 643.99 367.694C647.603 369.327 650.437 370.874 652.296 372.235C653.228 372.917 653.89 373.535 654.284 374.073C654.685 374.619 654.755 375.001 654.685 375.262C654.615 375.523 654.363 375.82 653.743 376.092C653.132 376.361 652.251 376.565 651.102 376.69C648.812 376.939 645.584 376.862 641.638 376.47C633.755 375.686 623.098 373.655 611.543 370.558C599.987 367.462 589.743 363.893 582.523 360.63C578.91 358.997 576.076 357.45 574.217 356.089C573.285 355.406 572.624 354.789 572.229 354.251C571.828 353.705 571.759 353.322 571.829 353.061Z" stroke="url(#paint7_linear_4220_36692)"/>
<path d="M986.617 364.846C992.689 378.146 1004.57 408.649 1003.53 424.262" stroke="#FFA88C" stroke-width="8" stroke-linecap="round" stroke-linejoin="round"/>
<rect x="898.576" y="278.171" width="78.0645" height="164.803" rx="39.0323" transform="rotate(-6.74691 898.576 278.171)" fill="url(#paint8_linear_4220_36692)"/>
<rect x="898.576" y="278.171" width="78.0645" height="164.803" rx="39.0323" transform="rotate(-6.74691 898.576 278.171)" fill="url(#paint9_linear_4220_36692)" fill-opacity="0.2"/>
<path d="M903.162 316.933C900.629 295.526 915.93 276.118 937.338 273.586V273.586C958.746 271.053 978.153 286.354 980.686 307.762L985.985 352.554L977.501 358.361L976.881 358.685C971.552 361.471 965.934 363.664 960.127 365.225L959.205 365.473C952.137 367.372 944.832 368.237 937.516 368.039V368.039C930.879 367.859 924.295 366.807 917.933 364.909L917.559 364.797L908.461 361.725L903.162 316.933Z" fill="url(#paint10_linear_4220_36692)"/>
<path d="M903.162 316.933C900.629 295.526 915.93 276.118 937.338 273.586V273.586C958.746 271.053 978.153 286.354 980.686 307.762L985.985 352.554L977.501 358.361L976.881 358.685C971.552 361.471 965.934 363.664 960.127 365.225L959.205 365.473C952.137 367.372 944.832 368.237 937.516 368.039V368.039C930.879 367.859 924.295 366.807 917.933 364.909L917.559 364.797L908.461 361.725L903.162 316.933Z" fill="url(#paint11_linear_4220_36692)" fill-opacity="0.4"/>
<path d="M931.104 337.067L936.308 336.656" stroke="#18181B" stroke-width="2" stroke-linecap="round" stroke-linejoin="round"/>
<path d="M952.789 332.731L957.993 332.319" stroke="#18181B" stroke-width="2" stroke-linecap="round" stroke-linejoin="round"/>
<path d="M938.101 343.607C940.279 344.884 945.913 346.977 951.022 345.136" stroke="#18181B" stroke-width="2" stroke-linecap="round"/>
<path d="M952.483 342.542C951.39 343.763 950.71 345.481 951.424 347.034" stroke="#18181B" stroke-width="2" stroke-linecap="round"/>
<path d="M912.455 374.821L886 378.291L914.19 399.541L905.516 405.613" stroke="#FFA88C" stroke-width="8" stroke-linecap="round" stroke-linejoin="round"/>
<path d="M929.369 282.878C923.637 284.675 913.895 292.599 912.021 301.093" stroke="white" stroke-width="5.69806" stroke-linecap="round"/>
<path d="M969.851 423.965C977.423 419.517 985.899 407.855 984.992 393.036" stroke="#FFF1D0" stroke-width="5.69806" stroke-linecap="round"/>
<circle cx="937.663" cy="279.896" r="3.089" fill="white"/>
<path d="M944.549 432.068V495.387L935.008 499.291" stroke="#FFA88C" stroke-width="8" stroke-linecap="round" stroke-linejoin="round"/>
<path d="M966.666 431.201L980.832 462.539C980.926 462.747 980.946 462.981 980.889 463.202L972.738 494.52L984.447 491.918" stroke="#FFA88C" stroke-width="8" stroke-linecap="round" stroke-linejoin="round"/>
<path opacity="0.5" d="M924.817 346.943L914.391 346.943C914.595 345.716 914.368 342.4 911.017 341.73C907.95 341.116 906.826 344.081 906.724 346.023C905.906 344.387 902.562 343.088 900.284 345.716C897.094 349.396 899.977 352.361 901.817 353.383C900.08 354.508 898.751 357.677 901.511 359.823C905.165 362.665 907.644 359.21 908.257 357.37C908.973 358.29 910.956 359.823 913.164 358.597C915.372 357.37 915.515 353.792 915.311 352.157L924.817 346.943Z" fill="#F5F6F7" stroke="white" stroke-linecap="round" stroke-linejoin="round"/>
<circle cx="955.823" cy="336.222" r="2.16846" fill="#18181B"/>
<circle cx="934.139" cy="338.824" r="2.16846" fill="#18181B"/>
<rect x="1064.84" y="323" width="75.4624" height="137.914" rx="37.7312" fill="url(#paint12_linear_4220_36692)"/>
<rect x="1071.88" y="329.174" width="61.3799" height="125.566" rx="30.69" stroke="url(#paint13_linear_4220_36692)" stroke-width="5"/>
<path d="M1074.38 393.258L1131.63 393.258" stroke="#FEC1BB" stroke-width="6" stroke-linecap="round"/>
<path d="M1100.83 365.935C1100.83 367.67 1101.35 370.272 1103.44 370.272C1105.52 370.272 1106.04 367.67 1106.04 365.935" stroke="#18181B" stroke-width="2" stroke-linecap="round"/>
<path d="M1065.27 402.799L1041.42 415.81L1034.48 385.451" stroke="#FFADA5" stroke-width="6" stroke-linecap="round" stroke-linejoin="round"/>
<path d="M1093.46 460.914L1079.15 508.62H1067.44" stroke="#FFADA5" stroke-width="6" stroke-linecap="round" stroke-linejoin="round"/>
<path d="M1113.85 460.914L1128.16 508.62H1139.87" stroke="#FFADA5" stroke-width="6" stroke-linecap="round" stroke-linejoin="round"/>
<path d="M1040.55 378.946C1041.85 379.38 1044.45 381.201 1044.45 385.018" stroke="white" stroke-opacity="0.5" stroke-width="2" stroke-linecap="round" stroke-linejoin="round"/>
<path d="M1026.02 389.788C1025.44 391.148 1024.84 394.26 1027.06 395.833" stroke="white" stroke-opacity="0.5" stroke-width="2" stroke-linecap="round" stroke-linejoin="round"/>
<path d="M1044.89 375.91C1046.19 376.344 1048.79 378.165 1048.79 381.982" stroke="white" stroke-opacity="0.5" stroke-width="2" stroke-linecap="round" stroke-linejoin="round"/>
<path d="M1020.5 390.656C1019.92 392.015 1019.32 395.127 1021.54 396.7" stroke="white" stroke-opacity="0.5" stroke-width="2" stroke-linecap="round" stroke-linejoin="round"/>
<ellipse cx="1097.66" cy="358.562" rx="3.33075" ry="3.46953" fill="#18181B"/>
<path d="M1098.76 356.878C1098.85 356.598 1099.25 356.598 1099.34 356.878L1099.48 357.348C1099.52 357.473 1099.64 357.559 1099.77 357.559H1100.27C1100.55 357.559 1100.68 357.924 1100.45 358.098L1100.02 358.419C1099.92 358.495 1099.88 358.627 1099.92 358.748L1100.08 359.251C1100.16 359.53 1099.84 359.756 1099.61 359.58L1099.23 359.294C1099.12 359.213 1098.97 359.213 1098.87 359.294L1098.49 359.58C1098.26 359.756 1097.94 359.53 1098.02 359.251L1098.18 358.748C1098.22 358.627 1098.17 358.495 1098.07 358.419L1097.65 358.098C1097.42 357.924 1097.54 357.559 1097.83 357.559H1098.33C1098.46 357.559 1098.58 357.473 1098.62 357.348L1098.76 356.878Z" fill="white"/>
<ellipse cx="1096.27" cy="359.43" rx="0.832688" ry="0.867384" fill="white"/>
<path d="M1111.68 356.828L1107.34 358.996L1111.68 361.165" stroke="#18181B" stroke-width="2" stroke-linecap="round" stroke-linejoin="round"/>
<circle cx="1160.25" cy="438.362" r="38.1649" fill="url(#paint14_linear_4220_36692)"/>
<path d="M1129.03 438.362L1191.48 438.362" stroke="#B6F2D9" stroke-width="6" stroke-linecap="round"/>
<path d="M1151.58 474.792V501.066C1151.58 501.762 1151.49 502.457 1151.28 503.118C1150.53 505.372 1149.03 508.485 1147.24 508.186" stroke="#88C9AE" stroke-width="4" stroke-linecap="round"/>
<path d="M1169.79 474.792V501.066C1169.79 501.762 1169.71 502.457 1169.49 503.118C1168.74 505.372 1167.25 508.485 1165.46 508.186" stroke="#88C9AE" stroke-width="4" stroke-linecap="round"/>
<path d="M1194.95 446.169L1169.05 453.451C1167.83 453.795 1166.54 453.843 1165.29 453.589L1149.15 450.306C1147.05 449.879 1144.87 450.313 1143.09 451.511L1139.43 453.975" stroke="#88C9AE" stroke-width="4" stroke-linecap="round"/>
<path d="M1125.56 446.169L1151.45 453.451C1152.67 453.795 1153.96 453.843 1155.21 453.589L1171.35 450.306C1173.45 449.879 1175.63 450.313 1177.41 451.511L1181.07 453.975" stroke="#9AD4BB" stroke-width="4" stroke-linecap="round"/>
<path d="M1139.86 392.277C1150.71 392.278 1172.94 391.979 1174.13 397.922C1175.32 403.864 1163.24 402.302 1153.04 402.288" stroke="#FFADA5" stroke-width="6" stroke-linecap="round"/>
<path d="M1147.24 409.35L1153.61 413.03" stroke="#18181B" stroke-width="2" stroke-linecap="round" stroke-linejoin="round"/>
<path d="M1171.83 409.35L1165.45 413.03" stroke="#18181B" stroke-width="2" stroke-linecap="round" stroke-linejoin="round"/>
<circle cx="1150.71" cy="414.075" r="1.73477" fill="#18181B"/>
<circle cx="1168.06" cy="414.075" r="1.73477" fill="#18181B"/>
<path d="M1175 493.007L1176.73 494.742L1175 496.477L1176.73 498.212L1175 499.946" stroke="white" stroke-opacity="0.5" stroke-linecap="round" stroke-linejoin="round"/>
<path d="M1145.5 483.466L1143.77 485.201L1145.5 486.936L1143.77 488.67L1145.5 490.405" stroke="white" stroke-opacity="0.5" stroke-linecap="round" stroke-linejoin="round"/>
<path d="M1179.33 493.007L1181.07 494.742L1179.33 496.477L1181.07 498.212" stroke="white" stroke-opacity="0.5" stroke-linecap="round" stroke-linejoin="round"/>
<path d="M1155.05 422.749L1161.99 422.749" stroke="#18181B" stroke-width="2" stroke-linecap="round"/>
<path d="M1163.71 420.147C1162.62 421.368 1161.94 423.086 1162.65 424.639" stroke="#18181B" stroke-width="2" stroke-linecap="round"/>
<ellipse cx="792.751" cy="465.591" rx="72.866" ry="40.1172" transform="rotate(-180 792.751 465.591)" fill="url(#paint15_radial_4220_36692)"/>
<ellipse cx="792.751" cy="465.591" rx="72.866" ry="40.1172" transform="rotate(-180 792.751 465.591)" fill="url(#paint16_linear_4220_36692)" fill-opacity="0.4"/>
<path d="M785 441C786.105 441 787 440.105 787 439C787 437.895 786.105 437 785 437C783.895 437 783 437.895 783 439C783 440.105 783.895 441 785 441Z" fill="#FFC960"/>
<path d="M800 441C801.105 441 802 440.105 802 439C802 437.895 801.105 437 800 437C798.895 437 798 437.895 798 439C798 440.105 798.895 441 800 441Z" fill="#FFC960"/>
<path d="M792.5 462C799.956 462 806 458.194 806 453.5C806 448.806 799.956 445 792.5 445C785.044 445 779 448.806 779 453.5C779 458.194 785.044 462 792.5 462Z" fill="url(#paint17_linear_4220_36692)"/>
<circle cx="759.592" cy="434.889" r="2.0468" fill="white" fill-opacity="0.6"/>
<path d="M753.861 436.936C746.492 439.392 735.849 445.942 730.527 452.492" stroke="white" stroke-opacity="0.6" stroke-width="3" stroke-linecap="round"/>
<path d="M827.956 494.656C834.631 492.931 849.242 486.468 855.792 477.053" stroke="#FF9534" stroke-opacity="0.4" stroke-width="3" stroke-linecap="round"/>
<path d="M811.581 496.036L830.686 515.141L835.833 508.521" stroke="#FF7F48" stroke-width="3.75" stroke-linecap="round" stroke-linejoin="round"/>
<circle cx="820.997" cy="426.702" r="7.77783" fill="#FFFAFA" fill-opacity="0.26"/>
<circle cx="820.997" cy="426.702" r="7.40283" stroke="white" stroke-opacity="0.4" stroke-width="0.75"/>
<circle cx="817.722" cy="444.714" r="4.50295" fill="#FFFAFA" fill-opacity="0.26"/>
<circle cx="817.722" cy="444.714" r="4.12795" stroke="white" stroke-opacity="0.4" stroke-width="0.75"/>
<circle cx="835.733" cy="413.602" r="17.6024" fill="#FFFAFA" fill-opacity="0.26"/>
<circle cx="835.733" cy="413.602" r="17.2274" stroke="white" stroke-opacity="0.4" stroke-width="0.75"/>
<path d="M765.757 460.744C757.369 465.52 738.089 473.155 728.072 465.483" stroke="#FF7F48" stroke-width="3.75" stroke-linecap="round"/>
<path d="M779.65 445.532C780.469 444.85 782.762 443.486 785.381 443.486" stroke="#18181B" stroke-width="2.25" stroke-linecap="round"/>
<path d="M805.031 445.532C804.213 444.85 801.92 443.486 799.3 443.486" stroke="#18181B" stroke-width="2.25" stroke-linecap="round"/>
<path d="M773.919 495.909C769.199 496.006 760.175 497.007 761.841 500.244C763.507 503.48 775.55 503.519 778.882 503.133L774.644 507.371" stroke="#FF7F48" stroke-width="3.75" stroke-linecap="round" stroke-linejoin="round"/>
<circle cx="805.032" cy="447.579" r="1.63744" fill="white"/>
<path d="M853.554 460.875C853.953 450.283 856.802 427.932 865.006 423.259" stroke="#FF7F48" stroke-width="3.75" stroke-linecap="round" stroke-linejoin="round"/>
<path fill-rule="evenodd" clip-rule="evenodd" d="M108.214 513C107.544 513 107 513.544 107 514.214C107 514.885 106.456 515.429 105.786 515.429H89C87.8954 515.429 87 516.324 87 517.429V520.714C87 521.819 87.8954 522.714 89 522.714H105.179C106.185 522.714 107 523.53 107 524.536C107 525.542 107.815 526.357 108.821 526.357H124.069C124.024 526.564 124 526.779 124 527V529C124 530.657 125.343 532 127 532H128C129.306 532 130.417 531.165 130.829 530H153.171C153.583 531.165 154.694 532 156 532C157.657 532 159 530.657 159 529V527C159 526.779 158.976 526.564 158.931 526.357H175.179C176.185 526.357 177 525.542 177 524.536C177 523.53 177.815 522.714 178.821 522.714H194C195.105 522.714 196 521.819 196 520.714V517.429C196 516.324 195.105 515.429 194 515.429H178.214C177.544 515.429 177 514.885 177 514.214C177 513.544 176.456 513 175.786 513H108.214ZM153 528V527C153 526.779 153.024 526.564 153.069 526.357H130.931C130.976 526.564 131 526.779 131 527V528H153Z" fill="#D2D2D2"/>
<path d="M108 511.706V479L88.1573 517.741C87.7434 518.549 88.5336 519.446 89.3873 519.137L107.34 512.646C107.736 512.503 108 512.127 108 511.706Z" fill="#CAE0F0"/>
<path d="M176 511.706V479L195.843 517.741C196.257 518.549 195.466 519.446 194.613 519.137L176.66 512.646C176.264 512.503 176 512.127 176 511.706Z" fill="#CAE0F0"/>
<path fill-rule="evenodd" clip-rule="evenodd" d="M129 408C127.895 408 127 408.895 127 410V413.771C115.745 419.313 108 430.898 108 444.292V512.292C108 517.815 112.477 522.292 118 522.292H166C171.523 522.292 176 517.815 176 512.292V444.292C176 430.898 168.255 419.313 157 413.771V410C157 408.895 156.105 408 155 408H129Z" fill="#A7CBE6"/>
<path d="M118 453C118 439.745 128.745 429 142 429V429C155.255 429 166 439.745 166 453V503C166 508.523 161.523 513 156 513H128C122.477 513 118 508.523 118 503V453Z" fill="white" fill-opacity="0.4"/>
<path d="M152 390V382.008C152 381.643 151.9 381.286 151.711 380.973L146.869 372.965C146.507 372.366 145.858 372 145.158 372H138.586C137.87 372 137.209 372.383 136.852 373.004L132.266 380.988C132.092 381.291 132 381.635 132 381.984V390C132 391.105 132.895 392 134 392H150C151.105 392 152 391.105 152 390Z" fill="#FFD4D4"/>
<rect x="124" y="391" width="36" height="20" rx="2" fill="#E7E7E7"/>
<circle cx="142" cy="453" r="17" fill="#F4F4F4" fill-opacity="0.8"/>
<circle cx="142" cy="453" r="13" fill="#A2D5FC"/>
<path d="M130 490C130 483.373 135.373 478 142 478V478C148.627 478 154 483.373 154 490V505.619C154 506.382 153.382 507 152.619 507H131.381C130.618 507 130 506.382 130 505.619V490Z" fill="#484D5F"/>
<path d="M148.006 508L156.483 526.926" stroke="#A2A2A2" stroke-width="6" stroke-linecap="round"/>
<path d="M135.477 508.074L127 527" stroke="#A2A2A2" stroke-width="6" stroke-linecap="round"/>
<path d="M148 513L134 513" stroke="#A2A2A2" stroke-width="6" stroke-linecap="round"/>
<path d="M152.246 521.245H131.094" stroke="#A2A2A2" stroke-width="6" stroke-linecap="round"/>
<defs>
<radialGradient id="paint0_radial_4220_36692" cx="0" cy="0" r="1" gradientUnits="userSpaceOnUse" gradientTransform="translate(1177 269.002) rotate(90) scale(6.40163)">
<stop stop-color="#FFCA43"/>
<stop offset="1" stop-color="#FFAF65"/>
</radialGradient>
<radialGradient id="paint1_radial_4220_36692" cx="0" cy="0" r="1" gradientUnits="userSpaceOnUse" gradientTransform="translate(794.501 213.502) rotate(-177.189) scale(8.17947)">
<stop stop-color="#FFF1CD"/>
<stop offset="1" stop-color="#78FFA6"/>
</radialGradient>
<radialGradient id="paint2_radial_4220_36692" cx="0" cy="0" r="1" gradientUnits="userSpaceOnUse" gradientTransform="translate(415.571 430.571) rotate(45) scale(8.17947)">
<stop stop-color="#FFF1CD"/>
<stop offset="1" stop-color="#78FFA6"/>
</radialGradient>
<linearGradient id="paint3_linear_4220_36692" x1="641.5" y1="479" x2="641.5" y2="721" gradientUnits="userSpaceOnUse">
<stop stop-color="#F3F3F3"/>
<stop offset="1" stop-color="#FBFBFB"/>
</linearGradient>
<radialGradient id="paint4_radial_4220_36692" cx="0" cy="0" r="1" gradientUnits="userSpaceOnUse" gradientTransform="translate(570.002 81.002) rotate(90) scale(6.40163)">
<stop stop-color="#FFCA43"/>
<stop offset="1" stop-color="#FFAF65"/>
</radialGradient>
<linearGradient id="paint5_linear_4220_36692" x1="84.0578" y1="86.386" x2="0.415158" y2="86.8726" gradientUnits="userSpaceOnUse">
<stop stop-color="#FFF187"/>
<stop offset="0.532241" stop-color="#FFF9C9"/>
<stop offset="0.98" stop-color="#FFF187"/>
</linearGradient>
<linearGradient id="paint6_linear_4220_36692" x1="626.914" y1="329.416" x2="616.072" y2="312.502" gradientUnits="userSpaceOnUse">
<stop stop-color="#F6ECA2"/>
<stop offset="1" stop-color="#F7F3D9"/>
</linearGradient>
<linearGradient id="paint7_linear_4220_36692" x1="613.217" y1="359.388" x2="610.246" y2="370.728" gradientUnits="userSpaceOnUse">
<stop offset="0.189556" stop-color="#FFFAEE"/>
<stop offset="0.520654" stop-color="#FFEF78"/>
<stop offset="1" stop-color="#FFEF78"/>
</linearGradient>
<linearGradient id="paint8_linear_4220_36692" x1="938.493" y1="350.521" x2="937.608" y2="442.974" gradientUnits="userSpaceOnUse">
<stop stop-color="#FFFEF2"/>
<stop offset="1" stop-color="white"/>
</linearGradient>
<linearGradient id="paint9_linear_4220_36692" x1="904.62" y1="385.818" x2="975.841" y2="385.509" gradientUnits="userSpaceOnUse">
<stop stop-color="white" stop-opacity="0"/>
<stop offset="1" stop-color="#FFE4B0"/>
</linearGradient>
<linearGradient id="paint10_linear_4220_36692" x1="937.338" y1="273.586" x2="948.548" y2="368.337" gradientUnits="userSpaceOnUse">
<stop stop-color="#FF604E"/>
<stop offset="1" stop-color="#FF825A"/>
</linearGradient>
<linearGradient id="paint11_linear_4220_36692" x1="906.816" y1="338.391" x2="980.978" y2="330.584" gradientUnits="userSpaceOnUse">
<stop stop-color="white" stop-opacity="0"/>
<stop offset="1" stop-color="#FF4848"/>
</linearGradient>
<linearGradient id="paint12_linear_4220_36692" x1="1102.57" y1="323" x2="1102.57" y2="460.914" gradientUnits="userSpaceOnUse">
<stop stop-color="#FFEAE8"/>
<stop offset="1" stop-color="#FFDCD8"/>
</linearGradient>
<linearGradient id="paint13_linear_4220_36692" x1="1102.57" y1="452.24" x2="1102.57" y2="331.674" gradientUnits="userSpaceOnUse">
<stop stop-color="#FFCCC7"/>
<stop offset="1" stop-color="#FDB9B1"/>
</linearGradient>
<linearGradient id="paint14_linear_4220_36692" x1="1160.25" y1="400.197" x2="1160.25" y2="476.527" gradientUnits="userSpaceOnUse">
<stop stop-color="#DFFFF2"/>
<stop offset="1" stop-color="#B9FFE2"/>
</linearGradient>
<radialGradient id="paint15_radial_4220_36692" cx="0" cy="0" r="1" gradientUnits="userSpaceOnUse" gradientTransform="translate(792.751 461.497) rotate(-90) scale(36.0236 65.4306)">
<stop stop-color="#FFF491"/>
<stop offset="1" stop-color="#FCB815"/>
</radialGradient>
<linearGradient id="paint16_linear_4220_36692" x1="792.751" y1="470.913" x2="792.751" y2="436.936" gradientUnits="userSpaceOnUse">
<stop stop-color="#FFA361" stop-opacity="0"/>
<stop offset="1" stop-color="#FFEFB8"/>
</linearGradient>
<linearGradient id="paint17_linear_4220_36692" x1="792.5" y1="462.312" x2="792.5" y2="446.898" gradientUnits="userSpaceOnUse">
<stop stop-color="#621D00"/>
<stop offset="1" stop-color="#CF6537"/>
</linearGradient>
</defs>
</svg>
