<svg width="115" height="18" viewBox="0 0 115 18" fill="none" xmlns="http://www.w3.org/2000/svg">
<path d="M2.308 17.716C1.732 17.716 1.316 17.628 1.06 17.452C0.82 17.276 0.668 17.052 0.604 16.78C0.54 16.492 0.508 16.188 0.508 15.868V2.74C0.508 2.436 0.54 2.156 0.604 1.9C0.668 1.628 0.828 1.404 1.084 1.228C1.34 1.052 1.764 0.964 2.356 0.964C2.756 0.964 3.06 0.987999 3.268 1.036C3.476 1.084 3.628 1.156 3.724 1.252C3.82 1.332 3.924 1.428 4.036 1.54L9.436 8.836H9.076L14.5 1.54C14.628 1.38 14.756 1.26 14.884 1.18C15.012 1.1 15.172 1.044 15.364 1.012C15.572 0.98 15.86 0.964 16.228 0.964C16.804 0.964 17.22 1.052 17.476 1.228C17.732 1.404 17.892 1.636 17.956 1.924C18.02 2.196 18.052 2.484 18.052 2.788V15.916C18.052 16.22 18.02 16.508 17.956 16.78C17.892 17.052 17.732 17.276 17.476 17.452C17.22 17.628 16.796 17.716 16.204 17.716C15.628 17.716 15.212 17.628 14.956 17.452C14.7 17.276 14.54 17.044 14.476 16.756C14.412 16.468 14.38 16.172 14.38 15.868V7.3L10.804 12.364C10.74 12.444 10.652 12.556 10.54 12.7C10.428 12.828 10.268 12.94 10.06 13.036C9.868 13.132 9.604 13.18 9.268 13.18C8.916 13.18 8.636 13.132 8.428 13.036C8.236 12.94 8.084 12.828 7.972 12.7C7.86 12.572 7.764 12.46 7.684 12.364L4.132 7.324V15.916C4.132 16.22 4.1 16.508 4.036 16.78C3.972 17.052 3.812 17.276 3.556 17.452C3.316 17.628 2.9 17.716 2.308 17.716ZM22.3109 17.716C21.7349 17.716 21.3189 17.636 21.0629 17.476C20.8069 17.3 20.6469 17.068 20.5829 16.78C20.5349 16.492 20.5109 16.196 20.5109 15.892V2.764C20.5109 2.06 20.6469 1.58 20.9189 1.324C21.1909 1.068 21.6789 0.939999 22.3829 0.939999H31.4549C31.7749 0.939999 32.0709 0.971999 32.3429 1.036C32.6149 1.084 32.8389 1.236 33.0149 1.492C33.1909 1.748 33.2789 2.18 33.2789 2.788C33.2789 3.364 33.1909 3.78 33.0149 4.036C32.8389 4.292 32.6069 4.452 32.3189 4.516C32.0469 4.564 31.7509 4.588 31.4309 4.588H24.1589V7.684H29.1029C29.4229 7.684 29.7029 7.708 29.9429 7.756C30.1989 7.804 30.3989 7.94 30.5429 8.164C30.6869 8.388 30.7589 8.764 30.7589 9.292C30.7589 9.788 30.6869 10.148 30.5429 10.372C30.3989 10.596 30.1989 10.732 29.9429 10.78C29.6869 10.828 29.3909 10.852 29.0549 10.852H24.1589V14.068H31.4549C31.7749 14.068 32.0709 14.1 32.3429 14.164C32.6149 14.228 32.8389 14.388 33.0149 14.644C33.1909 14.884 33.2789 15.308 33.2789 15.916C33.2789 16.492 33.1909 16.908 33.0149 17.164C32.8389 17.42 32.6069 17.572 32.3189 17.62C32.0469 17.684 31.7509 17.716 31.4309 17.716H22.3109ZM36.9593 17.716C36.3993 17.716 35.9913 17.628 35.7353 17.452C35.4953 17.276 35.3353 17.052 35.2553 16.78C35.1753 16.492 35.1353 16.188 35.1353 15.868V2.74C35.1353 2.436 35.1673 2.148 35.2313 1.876C35.2953 1.588 35.4553 1.356 35.7113 1.18C35.9673 1.004 36.3913 0.923999 36.9833 0.939999H41.3033C42.4553 0.939999 43.5273 1.148 44.5193 1.564C45.5113 1.98 46.3833 2.564 47.1353 3.316C47.8873 4.068 48.4713 4.948 48.8873 5.956C49.3033 6.964 49.5113 8.06 49.5113 9.244C49.5113 10.444 49.3033 11.564 48.8873 12.604C48.4713 13.628 47.8873 14.524 47.1353 15.292C46.3833 16.044 45.5033 16.636 44.4953 17.068C43.5033 17.5 42.4153 17.716 41.2313 17.716H36.9593ZM38.7833 14.044H41.3033C42.1673 14.044 42.9433 13.844 43.6313 13.444C44.3193 13.028 44.8633 12.468 45.2633 11.764C45.6633 11.06 45.8633 10.252 45.8633 9.34C45.8633 8.428 45.6633 7.612 45.2633 6.892C44.8633 6.172 44.3193 5.612 43.6313 5.212C42.9433 4.796 42.1593 4.588 41.2793 4.588H38.7833V14.044ZM53.1831 17.716C52.6071 17.716 52.1911 17.636 51.9351 17.476C51.6791 17.3 51.5191 17.068 51.4551 16.78C51.4071 16.492 51.3831 16.196 51.3831 15.892V2.764C51.3831 2.444 51.4071 2.148 51.4551 1.876C51.5191 1.604 51.6791 1.38 51.9351 1.204C52.1911 1.028 52.6151 0.939999 53.2071 0.939999C53.8151 0.939999 54.2391 1.028 54.4791 1.204C54.7351 1.38 54.8871 1.604 54.9351 1.876C54.9991 2.148 55.0311 2.452 55.0311 2.788V15.916C55.0311 16.22 54.9991 16.516 54.9351 16.804C54.8711 17.076 54.7111 17.3 54.4551 17.476C54.2151 17.636 53.7911 17.716 53.1831 17.716ZM69.2733 17.716C68.6813 17.716 68.2572 17.628 68.0012 17.452C67.7612 17.276 67.6092 17.044 67.5452 16.756C67.4812 16.468 67.4492 16.172 67.4492 15.868V2.764C67.4492 2.444 67.4812 2.148 67.5452 1.876C67.6092 1.604 67.7692 1.38 68.0252 1.204C68.2812 1.028 68.7052 0.939999 69.2972 0.939999C69.8892 0.939999 70.3052 1.028 70.5452 1.204C70.8012 1.38 70.9532 1.604 71.0012 1.876C71.0652 2.148 71.0972 2.452 71.0972 2.788V15.892C71.0972 16.196 71.0652 16.492 71.0012 16.78C70.9532 17.052 70.8012 17.276 70.5452 17.452C70.2892 17.628 69.8653 17.716 69.2733 17.716ZM59.0972 17.716C58.5052 17.716 58.0812 17.628 57.8252 17.452C57.5692 17.276 57.4092 17.044 57.3452 16.756C57.2972 16.468 57.2732 16.172 57.2732 15.868V2.764C57.2732 2.444 57.3052 2.148 57.3692 1.876C57.4332 1.604 57.5852 1.38 57.8252 1.204C58.0812 1.028 58.5132 0.939999 59.1212 0.939999C59.7132 0.939999 60.1292 1.028 60.3692 1.204C60.6252 1.38 60.7772 1.604 60.8252 1.876C60.8892 2.148 60.9212 2.452 60.9212 2.788V15.892C60.9212 16.196 60.8892 16.492 60.8252 16.78C60.7772 17.052 60.6252 17.276 60.3692 17.452C60.1132 17.628 59.6892 17.716 59.0972 17.716ZM60.3452 10.852V7.684H67.8332V10.852H60.3452ZM75.3959 17.716C74.8199 17.716 74.4039 17.636 74.1479 17.476C73.8919 17.3 73.7319 17.068 73.6679 16.78C73.6199 16.492 73.5959 16.196 73.5959 15.892V2.764C73.5959 2.06 73.7319 1.58 74.0039 1.324C74.2759 1.068 74.7639 0.939999 75.4679 0.939999H84.5399C84.8599 0.939999 85.1559 0.971999 85.4279 1.036C85.6999 1.084 85.9239 1.236 86.0999 1.492C86.2759 1.748 86.3639 2.18 86.3639 2.788C86.3639 3.364 86.2759 3.78 86.0999 4.036C85.9239 4.292 85.6919 4.452 85.4039 4.516C85.1319 4.564 84.8359 4.588 84.5159 4.588H77.2439V7.684H82.1879C82.5079 7.684 82.7879 7.708 83.0279 7.756C83.2839 7.804 83.4839 7.94 83.6279 8.164C83.7719 8.388 83.8439 8.764 83.8439 9.292C83.8439 9.788 83.7719 10.148 83.6279 10.372C83.4839 10.596 83.2839 10.732 83.0279 10.78C82.7719 10.828 82.4759 10.852 82.1399 10.852H77.2439V14.068H84.5399C84.8599 14.068 85.1559 14.1 85.4279 14.164C85.6999 14.228 85.9239 14.388 86.0999 14.644C86.2759 14.884 86.3639 15.308 86.3639 15.916C86.3639 16.492 86.2759 16.908 86.0999 17.164C85.9239 17.42 85.6919 17.572 85.4039 17.62C85.1319 17.684 84.8359 17.716 84.5159 17.716H75.3959ZM90.4043 17.716C89.8283 17.716 89.4123 17.636 89.1563 17.476C88.9003 17.3 88.7403 17.068 88.6763 16.78C88.6123 16.492 88.5803 16.196 88.5803 15.892V2.764C88.5803 2.444 88.6043 2.148 88.6523 1.876C88.7163 1.604 88.8763 1.38 89.1323 1.204C89.3883 1.028 89.8123 0.939999 90.4043 0.939999C91.0123 0.939999 91.4363 1.028 91.6763 1.204C91.9323 1.38 92.0843 1.604 92.1323 1.876C92.1963 2.148 92.2283 2.444 92.2283 2.764V14.548H98.8043C99.0763 14.548 99.3323 14.572 99.5723 14.62C99.8123 14.668 100.004 14.804 100.148 15.028C100.308 15.252 100.388 15.62 100.388 16.132C100.388 16.628 100.308 16.996 100.148 17.236C99.9883 17.46 99.7883 17.596 99.5483 17.644C99.3243 17.692 99.0763 17.716 98.8043 17.716H90.4043ZM103.999 17.716C103.407 17.716 102.983 17.628 102.727 17.452C102.487 17.276 102.335 17.044 102.271 16.756C102.207 16.468 102.175 16.172 102.175 15.868V2.764C102.175 2.46 102.207 2.172 102.271 1.9C102.335 1.612 102.495 1.38 102.751 1.204C103.007 1.028 103.431 0.939999 104.023 0.939999H108.943C109.615 0.939999 110.287 1.06 110.959 1.3C111.647 1.54 112.279 1.916 112.855 2.428C113.447 2.924 113.919 3.54 114.271 4.276C114.639 5.012 114.823 5.876 114.823 6.868C114.823 7.844 114.639 8.7 114.271 9.436C113.919 10.172 113.447 10.788 112.855 11.284C112.279 11.764 111.647 12.132 110.959 12.388C110.271 12.628 109.591 12.748 108.919 12.748H105.847V15.892C105.847 16.196 105.815 16.492 105.751 16.78C105.687 17.052 105.527 17.276 105.271 17.452C105.015 17.628 104.591 17.716 103.999 17.716ZM105.847 9.1H108.943C109.295 9.1 109.639 9.028 109.975 8.884C110.327 8.724 110.615 8.476 110.839 8.14C111.079 7.804 111.199 7.372 111.199 6.844C111.199 6.396 111.103 6.004 110.911 5.668C110.719 5.332 110.447 5.068 110.095 4.876C109.759 4.684 109.367 4.588 108.919 4.588H105.847V9.1Z" fill="#279EF9"/>
</svg>
